# 3ds Max Wavefront OBJ Exporter v0.97b - (c)2007 guruware
# File Created: 16.11.2015 06:23:33

mtllib Rock2.mtl

#
# object GeoSphere004
#

v  3.136858 3.518514 -0.918953
v  3.887026 3.191690 -0.436831
v  3.926636 2.642107 -1.841295
v  3.767264 2.239185 0.469664
v  4.735885 2.180114 -1.121935
v  4.509191 1.522689 -2.633801
v  3.251978 3.330328 -2.513135
v  4.038879 2.109308 -3.423115
v  2.849000 2.442424 -3.415428
v  1.884962 3.543591 -0.838733
v  1.613286 3.144343 -2.508875
v  0.199052 3.459653 -0.421247
v  2.229326 3.539623 0.518340
v  0.562072 3.748765 0.905324
v  1.005561 3.441028 2.327122
v  2.654553 3.243412 1.972349
v  2.913833 1.617860 1.744466
v  4.501588 0.865858 0.157860
v  1.722160 0.684083 2.198204
v  3.332240 -0.057146 0.475413
v  4.780312 -0.455027 -1.399591
v  4.914244 0.938386 -2.053331
v  4.625659 0.999358 -3.871494
v  4.612021 -0.262043 -3.302496
v  3.595736 0.364413 -4.009231
v  3.523899 1.566741 -4.535521
v  1.782320 2.047670 -4.039294
v  2.243620 0.696715 -4.303823
v  0.768222 1.134711 -3.323639
v  0.469008 2.396684 -1.683122
v  -0.850896 2.980044 0.691345
v  -0.656680 1.594809 -0.529857
v  -1.089011 2.023456 1.377635
v  -0.047752 2.655974 1.867775
v  1.414717 2.159403 2.042148
v  0.253697 1.288607 2.078789
v  1.742622 -0.215044 -1.344747
v  3.127188 -0.602159 -3.185570
v  3.738803 -0.659906 -1.679379
v  1.041710 0.316003 -2.938947
v  -0.440394 0.955592 0.436109
v  1.502680 0.044635 1.044112
v  -2.527931 2.496193 -1.954752
v  -1.664461 2.440211 -2.130186
v  -2.295182 1.968639 -2.658149
v  -0.890213 1.891443 -1.805053
v  -1.209594 1.855678 -2.783102
v  -2.035962 1.265925 -3.236432
v  -3.341898 2.250969 -2.565790
v  -2.991246 1.502857 -3.278632
v  -3.841350 1.541251 -2.740745
v  -3.273373 2.334093 -1.377985
v  -4.306194 1.889379 -1.855251
v  -4.054945 2.067690 -0.499138
v  -2.249582 2.502939 -1.058564
v  -3.133143 2.424738 -0.185705
v  -1.909687 2.418991 0.099555
v  -1.022189 2.504746 -0.753648
v  -0.465055 1.479359 -1.016795
v  -0.167341 1.090850 -2.294209
v  -0.638104 0.743767 -0.378645
v  -0.410845 0.353393 -1.712556
v  -0.487582 0.145950 -3.013383
v  -1.246478 1.002290 -3.237947
v  -2.527931 0.837382 -3.739094
v  -1.787021 0.076077 -3.590801
v  -3.048541 0.265090 -3.363713
v  -3.798399 0.979609 -3.462367
v  -4.752251 1.074576 -2.507301
v  -4.179761 0.252124 -2.859616
v  -4.665076 0.401875 -1.855190
v  -4.289101 1.313293 -1.100824
v  -3.895621 1.703099 0.325071
v  -4.048018 0.734215 -0.243389
v  -3.325129 1.114652 0.625510
v  -2.587169 1.718334 0.367188
v  -1.404649 1.631512 -0.234010
v  -1.826915 0.903879 0.248918
v  -2.437879 -0.144788 -1.654535
v  -2.537629 -0.351688 -2.915255
v  -1.240106 -0.164575 -2.663454
v  -3.998017 -0.049088 -1.877170
v  -3.129867 0.441590 -0.031086
v  -1.253166 0.198368 -0.710361
v  -1.388436 2.603729 2.836996
v  -1.535670 2.591897 3.434701
v  -0.722689 2.232157 3.457754
v  -1.985576 1.916014 3.763519
v  -0.983695 2.145570 4.159759
v  -0.138586 1.639010 4.046578
v  -0.485617 2.508795 2.771380
v  0.195871 1.903942 3.497107
v  0.017473 1.797720 2.697964
v  -1.594130 2.272451 2.104144
v  -0.684990 1.927551 1.866837
v  -2.033281 1.746916 1.190151
v  -2.295236 2.365554 2.469747
v  -2.734724 2.042923 1.473605
v  -3.438531 1.958669 1.997843
v  -3.019834 2.283996 2.983599
v  -2.753527 1.259490 3.604674
v  -1.629234 1.193789 4.576399
v  -3.092968 0.298106 3.244488
v  -1.891738 0.245881 4.209744
v  -0.650421 0.380224 4.956917
v  -0.366827 1.357491 4.532067
v  0.590873 1.318357 4.126671
v  0.360424 0.463606 4.571701
v  0.577112 0.603558 3.699491
v  0.777108 1.394685 3.227429
v  0.250062 1.234733 2.117772
v  0.544065 0.451663 2.769229
v  -0.211930 0.336783 1.886778
v  -1.235071 1.104906 1.522147
v  -2.746665 1.131338 0.853313
v  -1.959060 0.250857 1.244077
v  -3.090476 0.419782 1.087580
v  -3.268662 1.136098 1.564292
v  -3.144568 1.207867 2.595088
v  -3.255187 0.297496 2.183797
v  -1.084643 -0.302766 3.107280
v  0.129070 -0.178824 3.817980
v  -0.616217 -0.047670 4.374689
v  -0.333876 -0.139463 2.343179
v  -2.419507 -0.120211 1.681626
v  -2.444639 -0.194320 3.172836
# 126 vertices

vn 0.629382 0.710314 -0.383778
vn 0.751538 0.533631 0.446303
vn 0.695934 0.650397 -0.376169
vn 0.695934 0.650396 -0.376169
vn 0.720311 0.540200 -0.498228
vn 0.737058 0.684288 -0.147504
vn 0.819143 0.526458 -0.286424
vn 0.774923 0.590562 -0.298239
vn 0.774922 0.590562 -0.298239
vn 0.422667 0.522468 -0.813141
vn 0.169248 0.950493 -0.034675
vn 0.209832 0.645077 -0.785808
vn 0.076256 0.943544 -0.131844
vn 0.085900 0.943511 -0.136319
vn 0.141471 0.947392 0.105888
vn 0.084567 0.947029 -0.099026
vn 0.240493 0.944068 0.046756
vn 0.218269 0.920440 0.255186
vn 0.337179 0.904622 0.229653
vn 0.211934 0.921996 0.250967
vn 0.329432 0.916501 0.172489
vn 0.814963 0.484676 0.364082
vn 0.649394 0.457608 0.671253
vn 0.413669 -0.292945 0.892496
vn 0.334390 -0.326243 0.922829
vn 0.468468 -0.526299 0.660229
vn 0.833092 0.491765 -0.301855
vn 0.883931 -0.024160 -0.382568
vn 0.874588 0.021346 -0.426891
vn 0.395547 -0.315697 -0.895086
vn 0.319123 0.712150 -0.673250
vn 0.239080 -0.366207 -0.947970
vn 0.042420 -0.039769 -1.084153
vn -0.353292 -0.215358 -0.989915
vn -0.353292 -0.215358 -0.989914
vn -0.707613 0.345302 -0.525470
vn -0.761422 0.336741 -0.419623
vn -0.763522 0.237446 -0.522805
vn -0.763521 0.237446 -0.522805
vn -0.954827 -0.085641 -0.016622
vn -0.404943 -0.146411 0.978987
vn -0.498376 0.063557 0.916273
vn -0.262532 0.188320 1.013423
vn -0.248259 0.163800 1.025184
vn 0.954775 0.141826 -0.049986
vn 0.829844 0.337755 -0.472229
vn 0.954570 0.153802 -0.047910
vn 0.761819 0.511829 0.452759
vn 0.391359 -0.299082 -0.906508
vn 0.445270 0.726422 -0.577278
vn 0.673742 0.440951 -0.656395
vn 0.823122 0.507705 -0.307521
vn -0.718471 0.380837 -0.459951
vn -0.635216 0.405337 -0.582647
vn -0.635002 0.510001 -0.436088
vn 0.304999 0.731236 -0.653291
vn -0.524191 0.404982 0.727994
vn -0.548555 0.508940 0.588255
vn -0.410797 0.552349 0.690662
vn -0.348697 0.821484 0.162504
vn -0.348697 0.821483 0.162504
vn -0.009988 0.261102 1.043770
vn 0.780325 0.261668 0.598535
vn -0.127749 0.022187 1.075986
vn -0.100259 -0.012226 1.080564
vn -0.328533 -0.929402 0.005417
vn 0.173245 -0.574044 -0.819192
vn 0.116832 -0.881117 -0.313241
vn 0.124866 -0.879941 -0.309663
vn -0.454096 -0.882249 -0.131717
vn -0.443527 -0.624452 -0.707815
vn -0.293939 -0.760118 -0.615714
vn 0.112576 -0.578056 -0.836393
vn -0.552561 -0.842294 -0.031201
vn -0.854915 -0.530605 0.068847
vn -0.743336 -0.679936 -0.131320
vn -0.788462 -0.584503 -0.265232
vn -0.520697 -0.856793 0.081184
vn -0.535757 -0.667881 0.580587
vn -0.604327 -0.697199 0.451052
vn -0.667468 -0.607774 0.497388
vn -0.333851 -0.927090 0.050115
vn -0.097470 -0.929007 0.234380
vn -0.097471 -0.929007 0.234380
vn -0.172548 -0.928017 0.234760
vn -0.158530 -0.844464 0.497987
vn 0.210511 0.718022 -0.700556
vn 0.682807 0.681850 -0.337879
vn 0.284711 0.648614 -0.761749
vn 0.271055 0.508818 -0.888023
vn 0.407700 0.712160 -0.625244
vn 0.433926 0.527838 -0.802457
vn 0.389399 0.592103 -0.772628
vn -0.206126 0.417764 -0.927846
vn -0.113761 0.916311 0.119216
vn -0.504067 0.543165 -0.597549
vn -0.251279 0.866146 0.165338
vn -0.245438 0.870155 0.152651
vn -0.063398 0.913835 0.219918
vn -0.225575 0.874818 0.174782
vn -0.002755 0.940516 0.083750
vn 0.086384 0.933813 0.207742
vn 0.185933 0.948387 0.065347
vn 0.078263 0.932624 0.212583
vn 0.148878 0.950858 0.046832
vn 0.691673 0.617983 -0.441711
vn 0.739757 0.679175 -0.158448
vn 0.953827 0.082356 -0.051982
vn 0.951387 0.044613 0.045874
vn 0.867453 -0.183828 -0.302960
vn 0.441581 0.490963 -0.825088
vn 0.494086 0.040232 -0.930666
vn 0.468730 0.062651 -0.947818
vn -0.008993 -0.438235 -0.963266
vn -0.304678 0.674158 -0.618009
vn -0.304678 0.674157 -0.618009
vn -0.162611 -0.547861 -0.882714
vn -0.586634 -0.401973 -0.770999
vn -0.797154 -0.578695 -0.247724
vn -0.843738 0.012675 0.492250
vn -0.806773 0.021737 0.565629
vn -0.846670 -0.077806 0.504651
vn -0.665957 -0.218263 0.766012
vn 0.188161 0.076741 1.063019
vn -0.007892 0.219549 1.056488
vn 0.234886 0.431249 0.946793
vn 0.265697 0.421198 0.943947
vn 0.636446 0.246091 -0.789943
vn 0.636446 0.246091 -0.789942
vn 0.391995 0.312117 -0.944875
vn 0.636134 0.255699 -0.787542
vn 0.695231 0.664244 -0.349002
vn -0.022300 -0.431577 -0.967946
vn -0.091624 0.718485 -0.678470
vn 0.177419 0.370497 -0.989785
vn 0.430802 0.505675 -0.820966
vn -0.817742 0.053141 0.533178
vn -0.859334 0.059764 0.434171
vn -0.792036 0.174950 0.518330
vn -0.313312 0.697219 -0.573180
vn -0.185487 0.405471 0.944750
vn -0.185488 0.405471 0.944750
vn -0.276751 0.429136 0.892220
vn -0.145991 0.532849 0.866265
vn -0.384889 0.618419 0.630500
vn 0.484846 0.579355 0.723641
vn 0.813018 0.492968 -0.360572
vn 0.813018 0.492967 -0.360572
vn 0.494853 0.358972 0.864930
vn 0.547796 0.336788 0.835560
vn -0.057211 -0.948507 0.047619
vn -0.099123 -0.672776 -0.769117
vn 0.160551 -0.785604 -0.534493
vn 0.168225 -0.780738 -0.539142
vn -0.251668 -0.937354 0.120802
vn -0.571489 -0.824847 -0.116504
vn -0.364381 -0.889613 -0.264584
vn -0.159963 -0.702726 -0.729367
vn -0.302747 -0.896857 0.296906
vn -0.539069 -0.568820 0.690781
vn -0.524258 -0.749499 0.460231
vn -0.621493 -0.684826 0.447203
vn -0.219829 -0.900906 0.331116
vn -0.025153 -0.648620 0.791297
vn -0.157032 -0.696967 0.735766
vn -0.213097 -0.585613 0.842073
vn -0.039870 -0.945347 0.080904
vn 0.291655 -0.857521 -0.081265
vn 0.221830 -0.888589 0.005909
vn 0.393405 -0.790701 0.196352
vn 0.444129 0.886233 0.131663
vn -0.393112 0.464127 0.793847
vn 0.390339 0.874332 0.293124
vn 0.499491 0.827362 0.298518
vn 0.106831 0.835597 0.521278
vn 0.180457 0.772685 0.628801
vn 0.236860 0.825070 0.522382
vn 0.774105 0.533545 -0.400330
vn 0.299877 0.842610 -0.456985
vn 0.709389 0.440024 -0.610234
vn 0.402170 0.711462 -0.629799
vn 0.404185 0.717152 -0.620513
vn 0.153999 0.887848 -0.389029
vn 0.376444 0.737615 -0.608010
vn 0.182500 0.920871 -0.265929
vn -0.086153 0.926624 -0.065364
vn -0.103997 0.917354 0.132649
vn -0.077264 0.927438 -0.083609
vn -0.024859 0.939093 0.049258
vn -0.356595 0.459571 0.823520
vn -0.500569 0.355238 0.789934
vn -0.612429 -0.039751 0.834182
vn -0.632782 -0.072340 0.815564
vn -0.555056 -0.110417 0.884588
vn 0.181071 0.753314 0.658191
vn 0.181071 0.753314 0.658190
vn 0.087008 0.395970 0.987400
vn 0.159734 0.449451 0.950922
vn 0.947697 0.002850 -0.018993
vn 0.689157 0.574225 -0.507852
vn 0.893246 -0.109326 -0.287269
vn 0.783191 0.036910 -0.619942
vn 0.652254 -0.147029 -0.749227
vn 0.486119 -0.019394 -0.931624
vn 0.486119 -0.019394 -0.931625
vn 0.450324 -0.039791 -0.952554
vn 0.474830 -0.072690 -0.931125
vn 0.231564 -0.336910 -0.966365
vn -0.880663 -0.316072 0.355762
vn -0.942343 -0.274827 0.056880
vn -0.890447 -0.039019 0.386624
vn -0.880816 -0.048455 0.416754
vn -0.180531 0.390844 0.954966
vn 0.351503 0.712773 0.657195
vn -0.179616 0.397499 0.951395
vn -0.397687 0.448462 0.803638
vn 0.948403 0.016440 -0.054027
vn 0.651957 0.715131 -0.326824
vn 0.681267 0.741389 0.132940
vn 0.197784 0.768044 0.632891
vn 0.468427 -0.010840 -0.944414
vn 0.511445 0.021738 -0.917466
vn 0.475925 0.060259 -0.943188
vn 0.678667 0.577906 -0.519534
vn -0.764146 0.023174 -0.634889
vn -0.424239 0.130593 -0.948267
vn -0.424238 0.130593 -0.948267
vn -0.706080 0.286063 -0.585800
vn 0.209403 0.436204 -0.949787
vn -0.785374 0.091930 0.578924
vn -0.470307 0.278826 0.862026
vn -0.812970 -0.076335 0.572143
vn -0.798797 -0.082279 0.597877
vn -0.202114 -0.939363 0.151662
vn 0.818851 -0.364827 -0.135997
vn 0.818852 -0.364827 -0.135997
vn 0.031652 -0.755830 0.641811
vn 0.022962 -0.746586 0.658279
vn 0.035840 -0.915625 -0.237505
vn 0.541453 -0.448722 -0.667457
vn 0.512044 -0.613631 -0.478077
vn 0.797938 -0.368964 -0.246919
vn -0.030183 -0.906190 -0.317475
vn 0.059844 -0.667282 -0.756857
vn 0.170609 -0.698301 -0.675073
vn 0.288883 -0.561955 -0.772893
vn -0.182695 -0.941035 -0.151123
vn -0.648468 -0.762052 0.174463
vn -0.522701 -0.858392 -0.032502
vn -0.534065 -0.840951 -0.156976
vn -0.250929 -0.929176 0.185149
vn -0.467530 -0.670436 0.637867
vn -0.461870 -0.731213 0.556071
vn -0.598381 -0.570012 0.631532
# 254 vertex normals

vt 0.590808 0.506362 0.912858
vt 0.576840 0.450454 0.714857
vt 0.630363 0.412300 -0.330904
vt 0.545381 0.371701 0.378067
vt 0.603093 0.355350 -0.581526
vt 0.067362 0.412300 -0.330904
vt 0.040091 0.355350 -0.581526
vt 0.082235 0.300220 -0.794428
vt 0.669255 0.468393 -0.019878
vt 0.107866 0.347915 -0.589832
vt 0.106253 0.468393 -0.019878
vt 0.141485 0.391986 -0.383222
vt 0.451229 0.568180 0.754946
vt 0.201760 0.489279 0.081930
vt 0.351159 0.474591 0.310461
vt 0.481522 0.495462 0.636909
vt 0.403150 0.469540 0.449166
vt 0.435554 0.425507 0.356957
vt 0.485954 0.426050 0.443057
vt 0.496083 0.308706 0.093964
vt 0.566482 0.245189 0.230108
vt 0.455951 0.233129 -0.112381
vt 0.533435 0.152691 0.130935
vt 0.610653 0.166297 -0.755733
vt 0.063779 0.255616 -0.912858
vt 0.104878 0.265950 -0.862233
vt 0.047651 0.166297 -0.755733
vt 0.095063 0.187614 -0.769326
vt 0.127931 0.215096 -0.868627
vt 0.136205 0.303635 -0.738381
vt 0.184892 0.348719 -0.512039
vt 0.169801 0.232374 -0.834987
vt 0.228074 0.258547 -0.707502
vt 0.290868 0.418337 -0.103010
vt 0.367410 0.400847 0.075304
vt 0.338403 0.306732 -0.341998
vt 0.377209 0.333272 -0.167613
vt 0.403958 0.380017 0.063707
vt 0.445814 0.354168 0.064865
vt 0.413704 0.282849 -0.188963
vt 0.626781 0.255616 -0.912858
vt 0.241237 0.040684 -0.726524
vt 0.127636 0.135716 -0.700498
vt 0.063689 0.121422 -0.735409
vt 0.224897 0.169134 -0.788475
vt 0.367699 0.250511 -0.363210
vt 0.442606 0.155920 -0.160553
vt 0.626691 0.121422 -0.735409
vt 0.146771 0.959316 0.316936
vt 0.076787 0.927830 0.166399
vt 0.127219 0.894675 -0.001885
vt 0.045575 0.869081 -0.139808
vt 0.086611 0.858807 -0.164759
vt 0.121125 0.801680 -0.389422
vt 0.181146 0.901507 0.132433
vt 0.154789 0.825203 -0.250886
vt 0.190426 0.829516 -0.176117
vt 0.252384 0.932406 0.340768
vt 0.226880 0.858806 0.018128
vt 0.277009 0.868796 0.171865
vt 0.363787 0.951860 0.634477
vt 0.310904 0.901239 0.387698
vt 0.358900 0.892326 0.470034
vt 0.482369 0.927830 0.166399
vt 0.406272 0.901877 0.618085
vt 0.451157 0.869081 -0.139808
vt 0.422644 0.819269 0.366896
vt 0.461563 0.781477 -0.515958
vt 0.402008 0.749533 0.185907
vt 0.445673 0.713885 -0.634477
vt 0.055981 0.781477 -0.515958
vt 0.040091 0.713885 -0.634477
vt 0.077539 0.710635 -0.559975
vt 0.097485 0.773078 -0.514114
vt 0.138260 0.758841 -0.493915
vt 0.116651 0.699956 -0.517726
vt 0.155756 0.705353 -0.498010
vt 0.174389 0.771922 -0.396426
vt 0.211222 0.780089 -0.296563
vt 0.194352 0.710290 -0.401439
vt 0.228624 0.721830 -0.326666
vt 0.254268 0.805855 -0.124214
vt 0.298584 0.830663 0.075526
vt 0.283908 0.747270 -0.169761
vt 0.315835 0.783474 -0.020669
vt 0.335070 0.841003 0.191225
vt 0.381056 0.841194 0.303725
vt 0.359921 0.762472 0.070493
vt 0.122767 0.584367 -0.552614
vt 0.139859 0.649428 -0.397429
vt 0.084096 0.668096 -0.519206
vt 0.223834 0.670006 -0.311776
vt 0.313571 0.711754 -0.111275
vt 0.528349 0.584367 -0.552614
vt 0.399536 0.682818 0.155928
vt 0.489678 0.668096 -0.519206
vt 0.674428 0.934555 0.163221
vt 0.798698 0.907436 0.207869
vt 0.868804 0.881732 0.221569
vt 0.782153 0.846980 0.092987
vt 0.835731 0.850977 0.157256
vt 0.867259 0.800637 0.126004
vt 0.923008 0.890950 0.072529
vt 0.890908 0.822748 0.178509
vt 0.922734 0.824603 -0.062074
vt 0.549695 0.890950 0.072529
vt 0.651856 0.881669 0.066449
vt 0.549422 0.824603 -0.062074
vt 0.601105 0.840347 -0.025430
vt 0.655993 0.803858 -0.056972
vt 0.700979 0.875163 0.090445
vt 0.678736 0.820377 -0.006947
vt 0.702040 0.808921 -0.009288
vt 0.729610 0.844664 0.070020
vt 0.754565 0.764758 -0.032952
vt 0.809876 0.757291 0.019761
vt 0.738381 0.681383 -0.086234
vt 0.796550 0.665731 -0.024550
vt 0.838653 0.697497 0.033899
vt 0.851185 0.771355 0.079252
vt 0.879060 0.765570 0.107305
vt 0.866403 0.706368 0.068674
vt 0.889418 0.709620 0.093834
vt 0.904175 0.772558 0.143083
vt 0.941532 0.761175 -0.165026
vt 0.917848 0.694252 -0.221569
vt 0.568220 0.761175 -0.165026
vt 0.544536 0.694252 -0.221569
vt 0.584791 0.674998 -0.220297
vt 0.629455 0.747497 -0.158204
vt 0.668593 0.751710 -0.125679
vt 0.654411 0.679048 -0.164142
vt 0.678354 0.706462 -0.136051
vt 0.690063 0.751967 -0.107564
vt 0.716449 0.758377 -0.076833
vt 0.704939 0.688798 -0.115728
vt 0.871782 0.584367 0.089663
vt 0.879505 0.653427 0.101794
vt 0.846368 0.657325 0.053098
vt 0.944620 0.631932 -0.187518
vt 0.571308 0.631932 -0.187518
vt 0.675862 0.653582 -0.120190
vt 0.741158 0.629538 -0.060666
# 143 texture coords

g GeoSphere004
usemtl Forest/Rock2
f 1/1/1 2/2/1 3/3/1 
f 2/2/2 4/4/2 5/5/2 
f 2/2/3 5/5/4 3/3/4 
f 3/6/5 5/7/5 6/8/5 
f 1/1/6 3/3/6 7/9/6 
f 3/6/7 6/8/7 8/10/7 
f 3/6/8 8/10/9 7/11/9 
f 7/11/10 8/10/10 9/12/10 
f 1/1/11 7/9/11 10/13/11 
f 7/11/12 9/12/12 11/14/12 
f 7/11/13 11/14/13 10/13/13 
f 10/13/14 11/14/14 12/15/14 
f 1/1/15 10/13/15 13/16/15 
f 10/13/16 12/15/16 14/17/16 
f 10/13/17 14/17/17 13/16/17 
f 13/16/18 14/17/18 15/18/18 
f 1/1/19 13/16/19 2/2/19 
f 13/16/20 15/18/20 16/19/20 
f 13/16/21 16/19/21 2/2/21 
f 2/2/22 16/19/22 4/4/22 
f 4/4/23 17/20/23 18/21/23 
f 17/20/24 19/22/24 20/23/24 
f 17/20/25 20/23/25 18/21/25 
f 18/21/26 20/23/26 21/24/26 
f 6/8/27 22/25/27 23/26/27 
f 22/25/28 21/27/28 24/28/28 
f 22/25/29 24/28/29 23/26/29 
f 23/26/30 24/28/30 25/29/30 
f 9/12/31 26/30/31 27/31/31 
f 26/30/32 25/29/32 28/32/32 
f 26/30/33 28/32/33 27/31/33 
f 27/31/34 28/32/34 29/33/35 
f 12/15/36 30/34/36 31/35/36 
f 30/34/37 29/33/37 32/36/37 
f 30/34/38 32/36/39 31/35/38 
f 31/35/40 32/36/40 33/37/40 
f 15/18/41 34/38/41 35/39/41 
f 34/38/42 33/37/42 36/40/42 
f 34/38/43 36/40/43 35/39/43 
f 35/39/44 36/40/44 19/22/44 
f 21/24/45 22/41/45 18/21/45 
f 22/25/46 6/8/46 5/7/46 
f 22/41/47 5/5/47 18/21/47 
f 18/21/48 5/5/48 4/4/48 
f 25/29/49 26/30/49 23/26/49 
f 26/30/50 9/12/50 8/10/50 
f 26/30/51 8/10/51 23/26/51 
f 23/26/52 8/10/52 6/8/52 
f 29/33/53 30/34/53 27/31/53 
f 30/34/54 12/15/54 11/14/54 
f 30/34/55 11/14/55 27/31/55 
f 27/31/56 11/14/56 9/12/56 
f 33/37/57 34/38/57 31/35/57 
f 34/38/58 15/18/58 14/17/58 
f 34/38/59 14/17/59 31/35/59 
f 31/35/60 14/17/61 12/15/61 
f 19/22/62 17/20/62 35/39/62 
f 17/20/63 4/4/63 16/19/63 
f 17/20/64 16/19/64 35/39/64 
f 35/39/65 16/19/65 15/18/65 
f 37/42/66 38/43/66 39/44/66 
f 38/43/67 25/29/67 24/28/67 
f 38/43/68 24/28/68 39/44/68 
f 39/44/69 24/28/69 21/27/69 
f 37/42/70 40/45/70 38/43/70 
f 40/45/71 29/33/71 28/32/71 
f 40/45/72 28/32/72 38/43/72 
f 38/43/73 28/32/73 25/29/73 
f 37/42/74 41/46/74 40/45/74 
f 41/46/75 33/37/75 32/36/75 
f 41/46/76 32/36/76 40/45/76 
f 40/45/77 32/36/77 29/33/77 
f 37/42/78 42/47/78 41/46/78 
f 42/47/79 19/22/79 36/40/79 
f 42/47/80 36/40/80 41/46/80 
f 41/46/81 36/40/81 33/37/81 
f 37/42/82 39/44/82 42/47/82 
f 39/48/83 21/24/84 20/23/83 
f 39/48/85 20/23/85 42/47/85 
f 42/47/86 20/23/86 19/22/86 
f 43/49/87 44/50/87 45/51/87 
f 44/50/88 46/52/88 47/53/88 
f 44/50/89 47/53/89 45/51/89 
f 45/51/90 47/53/90 48/54/90 
f 43/49/91 45/51/91 49/55/91 
f 45/51/92 48/54/92 50/56/92 
f 45/51/93 50/56/93 49/55/93 
f 49/55/94 50/56/94 51/57/94 
f 43/49/95 49/55/95 52/58/95 
f 49/55/96 51/57/96 53/59/96 
f 49/55/97 53/59/97 52/58/97 
f 52/58/98 53/59/98 54/60/98 
f 43/49/99 52/58/99 55/61/99 
f 52/58/100 54/60/100 56/62/100 
f 52/58/101 56/62/101 55/61/101 
f 55/61/102 56/62/102 57/63/102 
f 43/49/103 55/61/103 44/64/103 
f 55/61/104 57/63/104 58/65/104 
f 55/61/105 58/65/105 44/64/105 
f 44/64/106 58/65/106 46/66/106 
f 46/66/107 59/67/107 60/68/107 
f 59/67/108 61/69/108 62/70/108 
f 59/67/109 62/70/109 60/68/109 
f 60/71/110 62/72/110 63/73/110 
f 48/54/111 64/74/111 65/75/111 
f 64/74/112 63/73/112 66/76/112 
f 64/74/113 66/76/113 65/75/113 
f 65/75/114 66/76/114 67/77/114 
f 51/57/115 68/78/116 69/79/116 
f 68/78/117 67/77/117 70/80/117 
f 68/78/118 70/80/118 69/79/118 
f 69/79/119 70/80/119 71/81/119 
f 54/60/120 72/82/120 73/83/120 
f 72/82/121 71/81/121 74/84/121 
f 72/82/122 74/84/122 73/83/122 
f 73/83/123 74/84/123 75/85/123 
f 57/63/124 76/86/124 77/87/124 
f 76/86/125 75/85/125 78/88/125 
f 76/86/126 78/88/126 77/87/126 
f 77/87/127 78/88/127 61/69/127 
f 63/73/128 64/74/129 60/71/129 
f 64/74/130 48/54/130 47/53/130 
f 64/74/131 47/53/131 60/71/131 
f 60/71/132 47/53/132 46/52/132 
f 67/77/133 68/78/133 65/75/133 
f 68/78/134 51/57/134 50/56/134 
f 68/78/135 50/56/135 65/75/135 
f 65/75/136 50/56/136 48/54/136 
f 71/81/137 72/82/137 69/79/137 
f 72/82/138 54/60/138 53/59/138 
f 72/82/139 53/59/139 69/79/139 
f 69/79/140 53/59/140 51/57/140 
f 75/85/141 76/86/142 73/83/142 
f 76/86/143 57/63/143 56/62/143 
f 76/86/144 56/62/144 73/83/144 
f 73/83/145 56/62/145 54/60/145 
f 61/69/146 59/67/146 77/87/146 
f 59/67/147 46/66/147 58/65/148 
f 59/67/149 58/65/149 77/87/149 
f 77/87/150 58/65/150 57/63/150 
f 79/89/151 80/90/151 81/91/151 
f 80/90/152 67/77/152 66/76/152 
f 80/90/153 66/76/153 81/91/153 
f 81/91/154 66/76/154 63/73/154 
f 79/89/155 82/92/155 80/90/155 
f 82/92/156 71/81/156 70/80/156 
f 82/92/157 70/80/157 80/90/157 
f 80/90/158 70/80/158 67/77/158 
f 79/89/159 83/93/159 82/92/159 
f 83/93/160 75/85/160 74/84/160 
f 83/93/161 74/84/161 82/92/161 
f 82/92/162 74/84/162 71/81/162 
f 79/94/163 84/95/163 83/93/163 
f 84/95/164 61/69/164 78/88/164 
f 84/95/165 78/88/165 83/93/165 
f 83/93/166 78/88/166 75/85/166 
f 79/94/167 81/96/167 84/95/167 
f 81/91/168 63/73/168 62/72/168 
f 81/96/169 62/70/169 84/95/169 
f 84/95/170 62/70/170 61/69/170 
f 85/97/171 86/98/171 87/99/171 
f 86/98/172 88/100/172 89/101/172 
f 86/98/173 89/101/173 87/99/173 
f 87/99/174 89/101/174 90/102/174 
f 85/97/175 87/99/175 91/103/175 
f 87/99/176 90/102/176 92/104/176 
f 87/99/177 92/104/177 91/103/177 
f 91/103/178 92/104/178 93/105/178 
f 85/97/179 91/106/179 94/107/179 
f 91/106/180 93/108/180 95/109/180 
f 91/106/181 95/109/181 94/107/181 
f 94/107/182 95/109/182 96/110/182 
f 85/97/183 94/107/183 97/111/183 
f 94/107/184 96/110/184 98/112/184 
f 94/107/185 98/112/185 97/111/185 
f 97/111/186 98/112/186 99/113/186 
f 85/97/187 97/111/187 86/98/187 
f 97/111/188 99/113/188 100/114/188 
f 97/111/189 100/114/189 86/98/189 
f 86/98/190 100/114/190 88/100/190 
f 88/100/191 101/115/191 102/116/191 
f 101/115/192 103/117/192 104/118/192 
f 101/115/193 104/118/193 102/116/193 
f 102/116/194 104/118/194 105/119/194 
f 90/102/195 106/120/195 107/121/196 
f 106/120/197 105/119/197 108/122/197 
f 106/120/198 108/122/198 107/121/198 
f 107/121/199 108/122/199 109/123/199 
f 93/105/200 110/124/200 111/125/200 
f 110/124/201 109/123/201 112/126/201 
f 110/124/202 112/126/202 111/125/202 
f 111/127/203 112/128/203 113/129/203 
f 96/110/204 114/130/205 115/131/205 
f 114/130/206 113/129/206 116/132/206 
f 114/130/207 116/132/207 115/131/207 
f 115/131/208 116/132/208 117/133/208 
f 99/113/209 118/134/209 119/135/209 
f 118/134/210 117/133/210 120/136/210 
f 118/134/211 120/136/211 119/135/211 
f 119/135/212 120/136/212 103/117/212 
f 105/119/213 106/120/213 102/116/213 
f 106/120/214 90/102/214 89/101/214 
f 106/120/215 89/101/215 102/116/215 
f 102/116/216 89/101/216 88/100/216 
f 109/123/217 110/124/217 107/121/217 
f 110/124/218 93/105/218 92/104/218 
f 110/124/219 92/104/219 107/121/219 
f 107/121/220 92/104/220 90/102/220 
f 113/129/221 114/130/221 111/127/221 
f 114/130/222 96/110/222 95/109/222 
f 114/130/223 95/109/223 111/127/223 
f 111/127/224 95/109/224 93/108/224 
f 117/133/225 118/134/225 115/131/225 
f 118/134/226 99/113/227 98/112/226 
f 118/134/228 98/112/228 115/131/228 
f 115/131/229 98/112/229 96/110/229 
f 103/117/230 101/115/230 119/135/230 
f 101/115/231 88/100/231 100/114/231 
f 101/115/232 100/114/232 119/135/232 
f 119/135/233 100/114/233 99/113/233 
f 121/137/234 122/138/234 123/139/234 
f 122/138/235 109/123/236 108/122/235 
f 122/138/237 108/122/237 123/139/237 
f 123/139/238 108/122/238 105/119/238 
f 121/137/239 124/140/239 122/138/239 
f 124/141/240 113/129/240 112/128/240 
f 124/140/241 112/126/241 122/138/241 
f 122/138/242 112/126/242 109/123/242 
f 121/137/243 125/142/243 124/140/243 
f 125/142/244 117/133/244 116/132/244 
f 125/142/245 116/132/245 124/141/245 
f 124/141/246 116/132/246 113/129/246 
f 121/137/247 126/143/247 125/142/247 
f 126/143/248 103/117/248 120/136/248 
f 126/143/249 120/136/249 125/142/249 
f 125/142/250 120/136/250 117/133/250 
f 121/137/251 123/139/251 126/143/251 
f 123/139/252 105/119/252 104/118/252 
f 123/139/253 104/118/253 126/143/253 
f 126/143/254 104/118/254 103/117/254 
# 240 faces

