# 3ds Max Wavefront OBJ Exporter v0.97b - (c)2007 guruware
# File Created: 16.11.2015 06:34:13

mtllib Rock1.mtl

#
# object GeoSphere003
#

v  0.000000 4.889519 0.110281
v  1.630033 4.867664 -0.264578
v  0.439376 4.203173 -1.546000
v  3.091635 3.619211 0.100123
v  2.488718 4.043234 -1.849960
v  0.928725 3.107546 -3.043728
v  -1.536584 4.714163 -1.220763
v  -0.874633 3.596913 -3.007254
v  -2.479433 3.400706 -1.925318
v  -1.407223 4.277601 1.167613
v  -3.356953 3.640521 -0.000081
v  -2.882652 3.306862 2.768906
v  0.525460 4.449575 1.883981
v  -1.142502 3.853631 3.568634
v  1.167102 3.698002 4.129215
v  2.842495 4.298927 2.487211
v  3.894237 2.406518 1.448788
v  4.456253 2.285158 -1.271054
v  3.567559 0.630704 2.337317
v  3.996571 0.534236 -0.495070
v  3.851709 0.782387 -3.169582
v  2.419089 2.587539 -3.180061
v  -0.000000 2.515254 -4.253409
v  1.398669 0.936406 -4.345525
v  -0.982791 1.194918 -3.801347
v  -2.398354 2.656242 -3.634840
v  -4.199006 2.360789 -1.700215
v  -3.118277 0.914346 -2.812137
v  -4.034439 0.702145 -0.752300
v  -3.324686 2.120979 1.198810
v  -2.581884 2.169802 4.212610
v  -2.869576 0.543428 2.599664
v  -1.504926 0.855457 4.508461
v  -0.111828 2.178594 4.303512
v  2.120498 2.311162 3.072021
v  1.323357 0.629577 3.657956
v  0.169998 -0.479194 -0.632424
v  -0.018308 -0.250255 -3.227437
v  2.431118 -0.007995 -2.635404
v  -2.775185 -0.177548 -1.023806
v  -1.136317 -0.141988 2.871035
v  2.406463 -0.278878 1.406211
v  0.575611 2.276431 3.474560
v  -0.669617 1.736419 3.237974
v  0.217728 1.641584 4.171051
v  1.278791 2.361188 2.319244
v  2.128134 2.065423 3.125428
v  1.577829 1.757496 4.533704
v  3.341877 1.596225 3.916169
v  2.384244 2.148545 1.778273
v  3.673976 1.860501 2.686097
v  3.786181 1.785279 1.108910
v  -0.912734 1.281754 4.307015
v  0.555668 1.138950 5.274228
v  -1.178596 0.575437 3.396793
v  -0.293362 0.439825 4.688273
v  1.159316 0.337260 5.061383
v  2.360763 1.023040 4.379882
v  4.255705 1.046638 3.559115
v  3.229403 0.260545 3.926317
v  4.330628 0.411361 2.819868
v  4.042034 1.050888 1.928636
v  2.987143 1.114963 0.600433
v  3.459733 0.302184 1.058547
v  2.345044 0.302729 -0.267583
v  0.772747 -0.233730 2.289899
v  -0.908813 -0.123074 2.700565
v  -0.791446 -0.005980 1.028171
v  0.841868 -0.087932 4.265322
v  3.215649 -0.070744 2.759228
v  1.862687 -0.136909 0.597150
v  -2.649456 2.350624 -3.021195
v  -2.571925 1.747196 -4.020397
v  -3.784518 1.952144 -3.409096
v  -3.358359 2.029449 -2.098307
v  -4.395052 1.499888 -2.253612
v  -4.171588 1.736419 -1.074598
v  -2.926360 2.276431 -0.838012
v  -3.284242 1.641584 -0.141521
v  -1.117726 2.148545 -2.534299
v  0.284210 1.785279 -3.203662
v  -0.978366 2.075731 -4.121080
v  -1.775971 1.161052 -4.696151
v  -3.622444 1.102394 -4.763905
v  -1.156926 0.302729 -4.580155
v  -3.062515 0.256102 -4.548202
v  -4.801036 0.376044 -4.157241
v  -4.649395 1.248547 -3.216246
v  -5.085874 1.213609 -1.510497
v  -5.301064 0.450487 -2.417867
v  -4.680566 0.575437 -0.915779
v  -4.414705 1.281754 -0.005557
v  -2.946303 1.138950 0.961656
v  -3.795333 0.439825 0.375702
v  -2.342655 0.337260 0.748812
v  -0.514828 1.114963 -3.712139
v  -0.042238 0.302184 -3.254025
v  -2.729223 -0.233730 -2.022672
v  -4.410784 -0.123074 -1.612007
v  -4.293417 -0.005980 -3.284401
v  -2.660103 -0.087932 -0.047250
v  -0.286322 -0.070744 -1.553344
v  -0.272568 0.260545 -0.386255
v  -1.639284 -0.136909 -3.715422
# 104 vertices

vn -0.071802 0.900108 -0.429710
vn 0.620690 0.782866 -0.043179
vn 0.000791 0.869963 -0.493116
vn -0.022749 0.777013 -0.629073
vn 0.167020 0.917155 -0.361843
vn 0.189487 0.802078 -0.566361
vn 0.128080 0.844654 -0.519765
vn -0.428838 0.646659 -0.630816
vn -0.247613 0.946953 0.204862
vn -0.602280 0.679015 -0.419759
vn -0.373180 0.904919 0.204592
vn -0.369431 0.908579 0.194946
vn -0.173528 0.933446 0.313953
vn -0.347160 0.911334 0.221247
vn -0.142603 0.968252 0.205310
vn -0.012779 0.937818 0.346893
vn 0.058437 0.968639 0.241503
vn -0.020489 0.936838 0.349163
vn 0.011312 0.976699 0.214314
vn 0.628261 0.761699 -0.158438
vn 0.724904 0.673220 0.145907
vn 0.976949 -0.113599 0.180740
vn 0.953971 -0.174841 0.243660
vn 0.946487 -0.309214 -0.092459
vn 0.201499 0.775216 -0.598697
vn 0.369359 0.315820 -0.873975
vn 0.317454 0.354481 -0.879526
vn -0.199788 -0.141650 -0.969546
vn -0.476974 0.783088 -0.399084
vn -0.324555 -0.248405 -0.912666
vn -0.667383 -0.020678 -0.744428
vn -0.816188 -0.335072 -0.470706
vn -0.958445 0.049714 0.280912
vn -0.923175 0.021177 0.383795
vn -0.956575 -0.071786 0.282509
vn -0.640715 -0.444860 0.625767
vn 0.414572 -0.290845 0.862287
vn 0.233254 -0.131719 0.963454
vn 0.415257 0.074326 0.906663
vn 0.441668 0.057031 0.895364
vn 0.576780 0.496987 -0.648328
vn 0.142923 0.631030 -0.762479
vn 0.573691 0.508024 -0.642488
vn 0.639881 0.766565 -0.054125
vn -0.216155 -0.127832 -0.967955
vn -0.331888 0.844607 -0.420107
vn -0.122994 0.667077 -0.734766
vn 0.185150 0.786195 -0.589590
vn -0.935772 0.078539 0.343746
vn -0.967455 0.133138 0.215185
vn -0.908843 0.230362 0.347762
vn -0.480524 0.795398 -0.369376
vn -0.480523 0.795398 -0.369376
vn -0.030929 0.175293 0.984030
vn -0.176836 0.262457 0.948602
vn -0.029978 0.355461 0.934210
vn -0.430234 0.629018 0.647484
vn 0.583705 0.238517 0.776143
vn 0.838296 0.541462 -0.063862
vn 0.609315 -0.028292 0.792424
vn 0.643718 -0.049712 0.763647
vn 0.110630 -0.988330 -0.104716
vn -0.210871 -0.466498 -0.859019
vn 0.192405 -0.773092 -0.604409
vn 0.199888 -0.768926 -0.607287
vn -0.083149 -0.992613 -0.088354
vn -0.546420 -0.749297 -0.374138
vn -0.333708 -0.817973 -0.468571
vn -0.262683 -0.493437 -0.829167
vn -0.099726 -0.993207 0.059951
vn -0.355443 -0.819615 0.449323
vn -0.355796 -0.915519 0.187710
vn -0.509178 -0.844212 0.167462
vn 0.001244 -0.994472 0.104994
vn 0.250391 -0.824898 0.506802
vn 0.128541 -0.878348 0.460415
vn 0.083070 -0.819511 0.567011
vn 0.135435 -0.988219 -0.071284
vn 0.420521 -0.899545 -0.118240
vn 0.368469 -0.927355 -0.065138
vn 0.520744 -0.844442 0.125471
vn -0.385107 0.761519 0.521327
vn 0.156509 0.968993 0.191199
vn -0.198881 0.753111 0.627112
vn 0.173826 0.936528 0.304466
vn 0.167059 0.938617 0.301810
vn 0.217559 0.969297 0.114597
vn 0.180892 0.943004 0.279322
vn 0.142931 0.984797 0.098716
vn 0.218272 0.975356 -0.032234
vn -0.196968 0.847314 0.493216
vn -0.741555 -0.361977 0.564862
vn -0.485064 -0.027373 0.874050
vn -0.217644 -0.396202 0.891995
vn 0.340095 0.059426 0.938512
vn 0.418232 0.025895 0.907971
vn 0.340901 -0.085793 0.936176
vn 0.572816 -0.562247 0.596457
vn 0.652701 -0.405842 -0.639746
vn 0.849309 -0.203245 -0.487202
vn 0.724470 0.108931 -0.680645
vn 0.703746 0.082865 -0.705603
vn -0.227470 0.905409 0.358457
vn 0.386592 0.095030 0.917342
vn 0.290158 0.156956 0.944019
vn 0.382427 0.276457 0.881658
vn -0.175907 0.854352 0.489019
vn 0.948705 0.279640 -0.147512
vn 0.912492 0.405194 0.056352
vn 0.839133 0.528242 -0.129676
vn 0.537054 0.766316 0.352608
vn -0.076665 -0.993652 -0.082330
vn -0.043148 -0.995699 0.081987
vn -0.172205 -0.813238 0.555868
vn -0.262411 -0.890352 0.372039
vn -0.619562 -0.655734 0.431457
vn 0.048178 -0.995774 0.078181
vn 0.342952 -0.898650 0.273517
vn 0.160477 -0.943486 0.289969
vn 0.169816 -0.884437 0.434666
vn 0.063121 -0.997910 -0.013797
vn 0.300629 -0.904717 -0.301844
vn 0.280277 -0.943324 -0.177721
vn 0.369426 -0.916082 -0.155940
vn -0.059426 -0.992419 -0.107581
vn -0.106453 0.825713 -0.553954
vn -0.321681 0.944685 0.063966
vn -0.432050 0.895121 0.109959
vn -0.410032 0.905937 -0.105605
vn -0.361148 0.931090 -0.051425
vn 0.220804 0.974980 -0.025685
vn 0.129199 0.990962 -0.036082
vn -0.182611 0.813123 -0.552707
vn 0.000038 0.726315 -0.687362
vn -0.010992 -0.131440 -0.991263
vn 0.035988 -0.202563 -0.978608
vn -0.194779 -0.354517 -0.914538
vn -0.440850 0.890226 -0.114671
vn -0.832303 0.461563 -0.306973
vn -0.823024 0.514945 -0.239715
vn -0.866957 -0.220032 0.447182
vn -0.578535 0.626352 -0.522475
vn -0.601108 0.798266 -0.037962
vn -0.570955 0.637260 -0.517600
vn -0.116306 0.811832 -0.572191
vn -0.861214 -0.198295 0.467964
vn -0.523124 0.818389 0.237868
vn -0.429736 0.897478 -0.099298
vn 0.526488 0.317443 -0.788695
vn -0.154691 0.599815 -0.785043
vn 0.546088 -0.038406 -0.836847
vn 0.508837 -0.066422 -0.858296
vn -0.668117 -0.635546 0.386913
vn -0.444440 -0.889614 -0.105170
vn -0.448433 -0.886725 -0.112370
vn -0.125441 -0.926283 -0.355337
vn -0.085310 -0.945867 -0.313142
vn 0.012925 -0.878010 -0.478468
# 158 vertex normals

vt 0.287588 0.331005 0.036561
vt 0.265533 0.321078 0.078099
vt 0.280911 0.280397 0.113836
vt 0.234692 0.329849 0.114830
vt 0.248778 0.273016 0.172385
vt 0.268820 0.213623 0.248021
vt 0.308838 0.295449 0.053486
vt 0.304077 0.228874 0.186324
vt 0.333459 0.262427 0.075196
vt 0.309854 0.362452 -0.014089
vt 0.343841 0.326679 -0.038427
vt 0.343584 0.417745 -0.057211
vt 0.279731 0.382759 0.030253
vt 0.308748 0.438678 0.019422
vt 0.265994 0.457843 0.100579
vt 0.244692 0.396320 0.091641
vt 0.200104 0.380321 0.139950
vt 0.192831 0.279497 0.233805
vt 0.139335 0.439112 0.218647
vt 0.138530 0.295473 0.290707
vt 0.153511 0.187110 0.430651
vt 0.231985 0.203743 0.310460
vt 0.289222 0.159226 0.340422
vt 0.207446 0.090528 0.516319
vt 0.344981 0.108556 0.323368
vt 0.342501 0.196257 0.208982
vt 0.376681 0.266130 0.012699
vt 0.409298 0.187738 0.115600
vt 0.427122 0.286625 -0.091677
vt 0.374421 0.375517 -0.119194
vt 0.364195 0.490020 -0.049147
vt 0.435834 0.462894 -0.232852
vt 0.407342 0.565277 -0.116888
vt 0.294596 0.524751 0.037427
vt 0.227481 0.463899 0.096567
vt 0.153295 0.573929 0.198447
vt 0.604878 0.210373 -0.140406
vt 0.580197 0.053581 0.203148
vt 0.744838 0.153393 -0.026556
vt 0.113615 0.153393 -0.026556
vt 0.467451 0.252576 -0.085540
vt 0.504733 0.536984 -0.359186
vt 0.717277 0.417915 -0.516319
vt 0.086054 0.417915 -0.516319
vt 0.697882 0.749269 -0.020094
vt 0.717130 0.747362 -0.051867
vt 0.706927 0.778443 -0.034260
vt 0.689973 0.722143 0.002229
vt 0.679454 0.742781 0.005303
vt 0.685302 0.786179 0.007336
vt 0.658708 0.767514 0.035671
vt 0.677274 0.708826 0.036257
vt 0.660004 0.730963 0.039379
vt 0.658646 0.691726 0.090151
vt 0.729899 0.784413 -0.065799
vt 0.708362 0.828328 -0.008605
vt 0.757132 0.765519 -0.122310
vt 0.760111 0.831350 -0.116689
vt 0.714430 0.887057 -0.044897
vt 0.660959 0.808475 0.024217
vt 0.635853 0.759785 0.066209
vt 0.607064 0.798988 0.097751
vt 0.613590 0.738140 0.105271
vt 0.639753 0.707287 0.090905
vt 0.655990 0.659407 0.139755
vt 0.615305 0.659021 0.184151
vt 0.631757 0.593413 0.270440
vt 0.835743 0.706065 -0.155366
vt 0.793246 0.736846 -0.151171
vt 0.783221 0.653100 -0.009057
vt 0.834215 0.853337 -0.250481
vt 0.937284 0.742080 -0.270440
vt 0.588325 0.742080 -0.270440
vt 0.913871 0.589559 0.026779
vt 0.564913 0.589559 0.026779
vt 0.177860 0.928773 0.418124
vt 0.165707 0.854901 -0.030805
vt 0.206285 0.873319 0.150174
vt 0.247043 0.919732 0.405063
vt 0.247890 0.832050 0.005525
vt 0.287435 0.858585 0.229120
vt 0.326650 0.923556 0.651281
vt 0.329107 0.848479 0.295753
vt 0.088650 0.918702 0.246138
vt 0.086054 0.844515 -0.139219
vt 0.124074 0.869797 0.064102
vt 0.146029 0.784263 -0.414675
vt 0.183963 0.777871 -0.365958
vt 0.132409 0.704593 -0.570506
vt 0.174696 0.698911 -0.481456
vt 0.209629 0.717533 -0.386437
vt 0.224559 0.794673 -0.204076
vt 0.268833 0.790376 -0.098417
vt 0.247526 0.717096 -0.296971
vt 0.286028 0.720581 -0.189820
vt 0.308534 0.796812 0.044906
vt 0.347506 0.781718 0.126497
vt 0.325076 0.712401 -0.044371
vt 0.360000 0.702860 0.086737
vt 0.108352 0.780434 -0.483372
vt 0.091188 0.695450 -0.651281
vt 0.242305 0.589559 -0.224998
vt 0.268549 0.655226 -0.146229
vt 0.218266 0.671306 -0.318460
vt 0.348639 0.652118 0.099998
vt 0.453272 0.651673 0.476414
vt 0.420311 0.690170 0.310358
vt 0.549284 0.649589 -0.465967
vt 0.136466 0.649589 -0.465967
vt 0.504005 0.695450 -0.651281
# 110 texture coords

g GeoSphere003
usemtl Forest/Rock1
f 1/1/1 2/2/1 3/3/1 
f 2/2/2 4/4/2 5/5/2 
f 2/2/3 5/5/3 3/3/3 
f 3/3/4 5/5/4 6/6/4 
f 1/1/5 3/3/5 7/7/5 
f 3/3/6 6/6/6 8/8/6 
f 3/3/7 8/8/7 7/7/7 
f 7/7/8 8/8/8 9/9/8 
f 1/1/9 7/7/9 10/10/9 
f 7/7/10 9/9/10 11/11/10 
f 7/7/11 11/11/11 10/10/11 
f 10/10/12 11/11/12 12/12/12 
f 1/1/13 10/10/13 13/13/13 
f 10/10/14 12/12/14 14/14/14 
f 10/10/15 14/14/15 13/13/15 
f 13/13/16 14/14/16 15/15/16 
f 1/1/17 13/13/17 2/2/17 
f 13/13/18 15/15/18 16/16/18 
f 13/13/19 16/16/19 2/2/19 
f 2/2/20 16/16/20 4/4/20 
f 4/4/21 17/17/21 18/18/21 
f 17/17/22 19/19/22 20/20/22 
f 17/17/23 20/20/23 18/18/23 
f 18/18/24 20/20/24 21/21/24 
f 6/6/25 22/22/25 23/23/25 
f 22/22/26 21/21/26 24/24/26 
f 22/22/27 24/24/27 23/23/27 
f 23/23/28 24/24/28 25/25/28 
f 9/9/29 26/26/29 27/27/29 
f 26/26/30 25/25/30 28/28/30 
f 26/26/31 28/28/31 27/27/31 
f 27/27/32 28/28/32 29/29/32 
f 12/12/33 30/30/33 31/31/33 
f 30/30/34 29/29/34 32/32/34 
f 30/30/35 32/32/35 31/31/35 
f 31/31/36 32/32/36 33/33/36 
f 15/15/37 34/34/37 35/35/37 
f 34/34/38 33/33/38 36/36/38 
f 34/34/39 36/36/39 35/35/39 
f 35/35/40 36/36/40 19/19/40 
f 21/21/41 22/22/41 18/18/41 
f 22/22/42 6/6/42 5/5/42 
f 22/22/43 5/5/43 18/18/43 
f 18/18/44 5/5/44 4/4/44 
f 25/25/45 26/26/45 23/23/45 
f 26/26/46 9/9/46 8/8/46 
f 26/26/47 8/8/47 23/23/47 
f 23/23/48 8/8/48 6/6/48 
f 29/29/49 30/30/49 27/27/49 
f 30/30/50 12/12/50 11/11/50 
f 30/30/51 11/11/51 27/27/51 
f 27/27/52 11/11/53 9/9/52 
f 33/33/54 34/34/54 31/31/54 
f 34/34/55 15/15/55 14/14/55 
f 34/34/56 14/14/56 31/31/56 
f 31/31/57 14/14/57 12/12/57 
f 19/19/58 17/17/58 35/35/58 
f 17/17/59 4/4/59 16/16/59 
f 17/17/60 16/16/60 35/35/60 
f 35/35/61 16/16/61 15/15/61 
f 37/37/62 38/38/62 39/39/62 
f 38/38/63 25/25/63 24/24/63 
f 38/38/64 24/24/64 39/40/64 
f 39/40/65 24/24/65 21/21/65 
f 37/37/66 40/41/66 38/38/66 
f 40/41/67 29/29/67 28/28/67 
f 40/41/68 28/28/68 38/38/68 
f 38/38/69 28/28/69 25/25/69 
f 37/37/70 41/42/70 40/41/70 
f 41/42/71 33/33/71 32/32/71 
f 41/42/72 32/32/72 40/41/72 
f 40/41/73 32/32/73 29/29/73 
f 37/37/74 42/43/74 41/42/74 
f 42/44/75 19/19/75 36/36/75 
f 42/44/76 36/36/76 41/42/76 
f 41/42/77 36/36/77 33/33/77 
f 37/37/78 39/39/78 42/43/78 
f 39/40/79 21/21/79 20/20/79 
f 39/40/80 20/20/80 42/44/80 
f 42/44/81 20/20/81 19/19/81 
f 43/45/82 44/46/82 45/47/82 
f 46/48/83 43/45/83 47/49/83 
f 43/45/84 45/47/84 48/50/84 
f 43/45/85 48/50/85 47/49/85 
f 47/49/86 48/50/86 49/51/86 
f 46/48/87 47/49/87 50/52/87 
f 47/49/88 49/51/88 51/53/88 
f 47/49/89 51/53/89 50/52/89 
f 50/52/90 51/53/90 52/54/90 
f 45/47/91 53/55/91 54/56/91 
f 53/55/92 55/57/92 56/58/92 
f 53/55/93 56/58/93 54/56/93 
f 54/56/94 56/58/94 57/59/94 
f 49/51/95 58/60/95 59/61/95 
f 58/60/96 57/59/96 60/62/96 
f 58/60/97 60/62/97 59/61/97 
f 59/61/98 60/62/98 61/63/98 
f 52/54/99 62/64/99 63/65/99 
f 62/64/100 61/63/100 64/66/100 
f 62/64/101 64/66/101 63/65/101 
f 63/65/102 64/66/102 65/67/102 
f 53/55/103 45/47/103 44/46/103 
f 57/59/104 58/60/104 54/56/104 
f 58/60/105 49/51/105 48/50/105 
f 58/60/106 48/50/106 54/56/106 
f 54/56/107 48/50/107 45/47/107 
f 61/63/108 62/64/108 59/61/108 
f 62/64/109 52/54/109 51/53/109 
f 62/64/110 51/53/110 59/61/110 
f 59/61/111 51/53/111 49/51/111 
f 66/68/112 67/69/112 68/70/112 
f 66/68/113 69/71/113 67/69/113 
f 69/71/114 57/59/114 56/58/114 
f 69/71/115 56/58/115 67/69/115 
f 67/69/116 56/58/116 55/57/116 
f 66/68/117 70/72/117 69/71/117 
f 70/73/118 61/63/118 60/62/118 
f 70/73/119 60/62/119 69/71/119 
f 69/71/120 60/62/120 57/59/120 
f 66/68/121 71/74/121 70/72/121 
f 71/75/122 65/67/122 64/66/122 
f 71/75/123 64/66/123 70/73/123 
f 70/73/124 64/66/124 61/63/124 
f 66/68/125 68/70/125 71/74/125 
f 72/76/126 73/77/126 74/78/126 
f 72/76/127 74/78/127 75/79/127 
f 75/79/128 74/78/128 76/80/128 
f 75/79/129 76/80/129 77/81/129 
f 75/79/130 77/81/130 78/82/130 
f 78/82/82 77/81/82 79/83/82 
f 80/84/131 81/85/131 82/86/131 
f 80/84/132 82/86/132 72/76/132 
f 72/76/133 82/86/133 73/77/133 
f 73/77/134 83/87/134 84/88/134 
f 83/87/135 85/89/135 86/90/135 
f 83/87/136 86/90/136 84/88/136 
f 84/88/137 86/90/137 87/91/137 
f 76/80/138 88/92/138 89/93/138 
f 88/92/139 87/91/139 90/94/139 
f 88/92/140 90/94/140 89/93/140 
f 89/93/141 90/94/141 91/95/141 
f 79/83/91 92/96/91 93/97/91 
f 92/96/92 91/95/92 94/98/92 
f 92/96/93 94/98/93 93/97/93 
f 93/97/94 94/98/94 95/99/94 
f 96/100/102 97/101/102 85/89/102 
f 87/91/142 88/92/142 84/88/142 
f 88/92/143 76/80/143 74/78/143 
f 88/92/144 74/78/144 84/88/144 
f 84/88/145 74/78/145 73/77/145 
f 91/95/146 92/96/146 89/93/146 
f 92/96/103 79/83/103 77/81/103 
f 92/96/147 77/81/147 89/93/147 
f 89/93/148 77/81/148 76/80/148 
f 85/89/149 83/87/149 96/100/149 
f 83/87/150 73/77/150 82/86/150 
f 83/87/151 82/86/151 96/100/151 
f 96/100/152 82/86/152 81/85/152 
f 98/102/112 99/103/112 100/104/112 
f 99/103/153 91/95/153 90/94/153 
f 99/103/154 90/94/154 100/104/154 
f 100/104/155 90/94/155 87/91/155 
f 98/102/113 101/105/113 99/103/113 
f 101/105/114 95/99/114 94/98/114 
f 101/105/115 94/98/115 99/103/115 
f 99/103/116 94/98/116 91/95/116 
f 98/102/117 102/106/117 101/105/117 
f 102/106/119 103/107/119 101/105/119 
f 101/105/120 103/107/120 95/99/120 
f 98/102/121 104/108/121 102/106/121 
f 104/109/122 85/89/122 97/101/122 
f 104/108/123 97/110/123 102/106/123 
f 98/102/125 100/104/125 104/109/125 
f 100/104/156 87/91/156 86/90/156 
f 100/104/157 86/90/157 104/109/157 
f 104/109/158 86/90/158 85/89/158 
# 176 faces

